<?xml version="1.0" encoding="utf-8"?>
<!-- Generator: Adobe Illustrator 15.1.0, SVG Export Plug-In . SVG Version: 6.00 Build 0)  -->
<!DOCTYPE svg PUBLIC "-//W3C//DTD SVG 1.1//EN" "http://www.w3.org/Graphics/SVG/1.1/DTD/svg11.dtd">
<svg version="1.1" id="Layer_1" xmlns="http://www.w3.org/2000/svg" xmlns:xlink="http://www.w3.org/1999/xlink" x="0px" y="0px"
	 width="141.3px" height="19.5px" viewBox="0 0 141.3 19.5" enable-background="new 0 0 141.3 19.5" xml:space="preserve">
<g>
	<path fill="#555555" d="M8.9,15.5H6.7C3,15.5,0,12.3,0,8.5c0-3.2,1.5-4.7,5.3-4.7H6c4.5,0,4.3,2.6,4.3,3.2c0,2.5-2.2,4.1-4.2,5.3
		c0.9,0.2,1.6,0.2,2.2,0.2h1.4L8.9,15.5z M5.5,6.9c-1.1,0-1.8,0.6-1.8,1.7C3.7,9,3.8,9.5,4,10c0.8-0.4,2.6-1.5,2.6-2.5
		C6.6,6.9,5.9,6.9,5.5,6.9z"/>
	<path fill="#555555" d="M22.6,4c3.1,0,4.1,1.4,4.1,4.4v7.1h-3.6V9c0-1.5-0.1-1.8-1.6-1.8H21v8.4h-3.6V7.1h-2.2v8.4h-3.6V4H22.6z"/>
	<path fill="#555555" d="M38.5,15.5h-3.7c-3.6,0-6.7-3.2-6.7-7.1c0-2.3,1.1-4.4,4.8-4.4h5.6V15.5z M34.8,7.1h-1.2
		c-0.6,0-1.8,0-1.8,1.6c0,1.7,1.2,3.5,3,3.7V7.1z"/>
	<path fill="#555555" d="M44.2,3.1h-3.6V0h3.6V3.1z M44.2,15.5h-3.6V4h3.6V15.5z"/>
	<path fill="#555555" d="M49.9,15.5h-3.6V0h3.6V15.5z"/>
	<path fill="#555555" d="M55.6,4h2c3.1,0,4.1,1.4,4.1,4.4v7.1H58V9c0-1.5-0.1-1.8-1.6-1.8h-0.9v8.4h-3.6V0h3.6V4z"/>
	<path fill="#555555" d="M69.4,3.8c4.7,0,4.7,3.7,4.7,4.4c0,3.6-2.1,7.7-5.5,7.7s-5.5-4.1-5.5-7.7c0-0.6,0-4.4,4.7-4.4H69.4z
		 M70.4,8.5c0-1.1-0.6-1.6-1.8-1.6c-1.1,0-1.8,0.5-1.8,1.6c0,2.4,1.1,4.1,1.8,4.1S70.4,10.8,70.4,8.5z"/>
	<path fill="#555555" d="M81.2,3.8c4.7,0,4.7,3.7,4.7,4.4c0,3.6-2.1,7.7-5.5,7.7s-5.5-4.1-5.5-7.7c0-0.6,0-4.4,4.7-4.4H81.2z
		 M82.1,8.5c0-1.1-0.6-1.6-1.8-1.6c-1.1,0-1.8,0.5-1.8,1.6c0,2.4,1.1,4.1,1.8,4.1S82.1,10.8,82.1,8.5z"/>
	<path fill="#555555" d="M91,15.5h-3.6V0H91V15.5z M94.9,9.1l2.9,6.4h-4L91,9.2L93.3,4h4L94.9,9.1z"/>
	<path fill="#555555" d="M105.2,7h-1.6c-0.8,0-1,0.1-1,0.4c0,0.2,0.2,0.4,0.3,0.6l1.6,2c0.6,0.8,1.1,1.6,1.1,2.6
		c0,1.5-1.1,2.8-2.9,2.8h-3.7L98,12.4h2c0.3,0,1.3,0.2,1.3-0.3c0-0.3-0.4-0.7-0.5-0.9l-1.5-2c-0.6-0.8-1.1-1.6-1.1-2.6
		c0-0.8,0.6-2.6,3.1-2.6h3.1L105.2,7z"/>
	<path fill="#555555" d="M110.6,15.5h-3.4V12h3.4V15.5z"/>
	<path fill="#555555" d="M117.8,4h4.1l-2.9,5.3l3.2,6.1h-4.2l-1.4-4.1h0l-1.4,4.1H111l3.2-6.1L111.4,4h4.1l1.2,3.4h0L117.8,4z"/>
	<path fill="#555555" d="M127.3,19.5h-3.9l1.8-4.9L121.1,4h4.3l1.7,5.4h0l1.7-5.4h4L127.3,19.5z"/>
	<path fill="#555555" d="M141.3,4l-3.9,8.4h3.7l-0.9,3.1H132l4-8.5h-3.4l0.9-3H141.3z"/>
</g>
</svg>
